<mxfile host="app.diagrams.net" agent="Mozilla/5.0 (Windows NT 10.0; Win64; x64) AppleWebKit/537.36 (KHTML, like Gecko) Chrome/131.0.0.0 Safari/537.36" version="24.9.1">
  <diagram name="Trang-1" id="zRStrCZms60aBh5zQ9CK">
    <mxGraphModel dx="1050" dy="1726" grid="1" gridSize="10" guides="1" tooltips="1" connect="1" arrows="1" fold="1" page="1" pageScale="1" pageWidth="827" pageHeight="1169" math="0" shadow="0">
      <root>
        <mxCell id="0" />
        <mxCell id="1" parent="0" />
        <mxCell id="qiFPqOPnVEBE7Ju587Xf-8" style="edgeStyle=orthogonalEdgeStyle;rounded=0;orthogonalLoop=1;jettySize=auto;html=1;exitX=0.5;exitY=1;exitDx=0;exitDy=0;entryX=0.5;entryY=0;entryDx=0;entryDy=0;" edge="1" parent="1" source="qiFPqOPnVEBE7Ju587Xf-1" target="qiFPqOPnVEBE7Ju587Xf-3">
          <mxGeometry relative="1" as="geometry" />
        </mxCell>
        <mxCell id="qiFPqOPnVEBE7Ju587Xf-1" value="Start" style="ellipse;whiteSpace=wrap;html=1;" vertex="1" parent="1">
          <mxGeometry x="340" y="-1050" width="120" height="80" as="geometry" />
        </mxCell>
        <mxCell id="qiFPqOPnVEBE7Ju587Xf-9" style="edgeStyle=orthogonalEdgeStyle;rounded=0;orthogonalLoop=1;jettySize=auto;html=1;exitX=0.5;exitY=1;exitDx=0;exitDy=0;entryX=0.5;entryY=0;entryDx=0;entryDy=0;" edge="1" parent="1" source="qiFPqOPnVEBE7Ju587Xf-3" target="qiFPqOPnVEBE7Ju587Xf-4">
          <mxGeometry relative="1" as="geometry" />
        </mxCell>
        <mxCell id="qiFPqOPnVEBE7Ju587Xf-3" value="Login flow" style="rounded=0;whiteSpace=wrap;html=1;" vertex="1" parent="1">
          <mxGeometry x="340" y="-900" width="120" height="60" as="geometry" />
        </mxCell>
        <mxCell id="qiFPqOPnVEBE7Ju587Xf-10" style="edgeStyle=orthogonalEdgeStyle;rounded=0;orthogonalLoop=1;jettySize=auto;html=1;exitX=0.5;exitY=1;exitDx=0;exitDy=0;entryX=0.5;entryY=0;entryDx=0;entryDy=0;" edge="1" parent="1" source="qiFPqOPnVEBE7Ju587Xf-4" target="qiFPqOPnVEBE7Ju587Xf-7">
          <mxGeometry relative="1" as="geometry" />
        </mxCell>
        <mxCell id="qiFPqOPnVEBE7Ju587Xf-4" value="CV scanning flow" style="rounded=0;whiteSpace=wrap;html=1;" vertex="1" parent="1">
          <mxGeometry x="340" y="-770" width="120" height="60" as="geometry" />
        </mxCell>
        <mxCell id="qiFPqOPnVEBE7Ju587Xf-7" value="End" style="ellipse;whiteSpace=wrap;html=1;" vertex="1" parent="1">
          <mxGeometry x="340" y="-640" width="120" height="80" as="geometry" />
        </mxCell>
      </root>
    </mxGraphModel>
  </diagram>
</mxfile>
